:SAMPLES-PER-SECOND 30
:FULLY-SPECIFIED
:DEGREES
360
root  44.367 38.3759 5.0423 -115.209 88.4637 -114.474
RightUpLeg  -18.7166 -8.94433 -3.28036
RightLeg  14.7816 1.99712 0.513586
RightFoot  -3.10847 -0.26096 3.58857
RightToes  -4.65663e-010 0 -3.6325e-017
Spine  7.93775 -0.0338913 -6.75131
Spine1  4.77737 1.25729 -7.102
HEad  -20.7024 -4.73295 3.70644
LeftShoulder1  -0.432974 4.61892 -32.6336
LeftArm  37.5454 -17.6298 -57.0029
LeftForeArm  27.4476 -50.6093 -11.5322
LeftHand  -0.0331638 5.70802 -0.349191
RightShoulder  -0.633267 -5.31335 28.2887
RightArm  29.7988 -6.246 47.0845
RightForeArm  13.3829 17.3238 6.13605
RightHand  0.0428568 2.93474 0.367283
LeftUpLeg  5.402 4.37832 8.12101
LeftLeg  15.375 -5.91697 0.17528
LeftFoot  -18.6521 0.00174782 -1.72348
LeftToes  8.74931e-010 -1.05764e-010 1.2659e-011
361
root  45.2362 38.2154 5.21858 -99.4747 88.4678 -97.84
RightUpLeg  -18.3093 -5.98172 -3.19337
RightLeg  17.4915 1.83191 0.423958
RightFoot  0.830716 -0.117994 1.05856
RightToes  -4.65663e-010 0 -3.6325e-017
Spine  8.65941 -0.523725 -4.49002
Spine1  4.42335 0.232423 -4.38717
HEad  -21.3282 -2.6627 1.62596
LeftShoulder1  -0.55892 4.90231 -33.8317
LeftArm  37.4521 -16.3052 -55.6048
LeftForeArm  26.5937 -46.6999 -9.98856
LeftHand  -0.0334308 5.75841 -0.465587
RightShoulder  -0.662341 -5.39044 28.3832
RightArm  23.7755 -5.38536 45.6744
RightForeArm  18.922 13.0906 7.52824
RightHand  0.0310231 2.50551 0.255159
LeftUpLeg  8.39001 2.23565 8.13183
LeftLeg  14.5253 -3.60287 0.649
LeftFoot  -19.7256 -0.0685942 -2.56036
LeftToes  8.74931e-010 -1.05764e-010 1.2659e-011
362
root  46.1324 37.8896 5.40331 -69.8839 87.2881 -66.6472
RightUpLeg  -17.8278 -4.78402 -2.08576
RightLeg  22.4701 1.90618 0.664101
RightFoot  -1.58638 -0.092477 0.969119
RightToes  -4.65663e-010 0 -3.6325e-017
Spine  9.58311 -1.01063 0.158799
Spine1  4.98681 0.0430856 -4.32049
HEad  -23.3011 -1.52481 0.238285
LeftShoulder1  -0.527243 4.81682 -33.9949
LeftArm  37.1663 -15.0089 -55.2834
LeftForeArm  24.1367 -40.6235 -8.04246
LeftHand  -0.0305544 6.05252 0.330209
RightShoulder  -0.743975 -5.56878 29.3791
RightArm  17.4375 -3.97074 44.4234
RightForeArm  21.5983 8.9014 7.85661
RightHand  -0.0115017 2.30147 -0.363851
LeftUpLeg  10.9074 -1.57109 8.47732
LeftLeg  16.8114 1.11033 1.27618
LeftFoot  -21.767 -0.183206 -3.39525
LeftToes  8.74931e-010 -1.05764e-010 1.2659e-011
363
root  46.959 37.6639 5.57255 -60.6877 85.6914 -57.1433
RightUpLeg  -17.5647 -6.28498 -0.545771
RightLeg  25.0306 3.92424 1.77109
RightFoot  -3.38908 -0.0792352 0.780223
RightToes  -4.65663e-010 0 -3.6325e-017
Spine  9.46187 -1.24817 4.44586
Spine1  5.55416 0.0122367 -3.34175
HEad  -24.9392 -0.292778 -1.63527
LeftShoulder1  -0.52571 4.81299 -34.0043
LeftArm  36.9333 -13.0485 -55.3528
LeftForeArm  20.6255 -33.3744 -6.15943
LeftHand  -0.0250022 6.35427 1.00883
RightShoulder  -0.699411 -5.46113 29.0435
RightArm  12.367 -3.9464 44.4198
RightForeArm  21.1605 6.29631 6.59309
RightHand  -0.0316071 2.24393 -0.663109
LeftUpLeg  10.531 -3.57719 9.01414
LeftLeg  21.8144 4.47069 2.22292
LeftFoot  -22.4627 -0.427959 -5.83043
LeftToes  8.74931e-010 -1.05764e-010 1.2659e-011
364
root  47.7283 37.5895 5.82751 -53.9077 85.0337 -50.4219
RightUpLeg  -17.2687 -6.74032 0.0362472
RightLeg  26.7919 4.80169 2.39456
RightFoot  -5.28729 -0.0387925 0.0820256
RightToes  -4.65663e-010 0 -3.6325e-017
Spine  8.71558 -0.891336 6.59734
Spine1  6.75071 0.206217 -1.09621
HEad  -26.793 0.1675 -2.80024
LeftShoulder1  -0.598082 4.94876 -35.1485
LeftArm  37.3648 -12.0749 -55.029
LeftForeArm  15.9661 -24.9961 -4.94755
LeftHand  -0.0285541 6.87178 0.778925
RightShoulder  -0.650558 -5.35859 28.3744
RightArm  10.5687 -3.54296 44.7281
RightForeArm  17.5357 4.56609 5.9554
RightHand  -0.077804 2.4456 -1.35697
LeftUpLeg  8.23453 -2.84567 9.54683
LeftLeg  28.8374 4.40768 2.94194
LeftFoot  -19.822 -0.438657 -7.6477
LeftToes  8.74931e-010 -1.05764e-010 1.2659e-011
365
root  48.436 37.6166 6.13004 -41.2704 84.3943 -38.0303
RightUpLeg  -16.8199 -5.18945 0.122999
RightLeg  27.542 4.50276 2.31008
RightFoot  -6.86253 -0.0573192 0.27205
RightToes  -4.65663e-010 0 -3.6325e-017
Spine  8.81029 -0.32956 8.02336
Spine1  6.54868 0.781824 -0.0949624
HEad  -28.0479 0.517041 -3.36974
LeftShoulder1  -0.718526 5.19327 -36.3233
LeftArm  27.6123 -10.0485 -52.5693
LeftForeArm  20.8873 -17.7385 -7.21538
LeftHand  -0.0289856 8.77881 0.545318
RightShoulder  -0.680892 -5.43708 28.5157
RightArm  10.4713 -2.62349 45.1357
RightForeArm  16.8143 3.72886 5.99718
RightHand  -0.123054 2.23159 -2.06096
LeftUpLeg  4.41495 -1.15145 9.68952
LeftLeg  37.0552 4.34482 3.93531
LeftFoot  -13.3064 -0.0889715 -6.49309
LeftToes  8.74931e-010 -1.05764e-010 1.2659e-011
366
root  49.1788 37.7645 6.37979 -29.5782 84.0563 -26.4769
RightUpLeg  -15.653 -4.27921 -0.396585
RightLeg  27.3195 4.60549 2.34254
RightFoot  -8.05974 -0.064522 0.350081
RightToes  -4.65663e-010 0 -3.6325e-017
Spine  8.45899 -0.136318 10.1857
Spine1  6.56965 1.57932 -1.6105
HEad  -28.1827 1.56346 -3.56096
LeftShoulder1  -0.602296 4.94298 -35.6509
LeftArm  8.22816 -6.77707 -49.3762
LeftForeArm  34.2972 -10.538 -10.6934
LeftHand  0.033419 9.3682 2.3766
RightShoulder  -0.789155 -5.68103 29.6163
RightArm  11.4569 -1.32681 45.9447
RightForeArm  18.0124 3.68673 6.46134
RightHand  -0.120472 2.54423 -1.97241
LeftUpLeg  0.243218 0.0497857 8.78547
LeftLeg  44.4668 5.12837 5.71863
LeftFoot  -5.68245 0.165703 -2.06951
LeftToes  8.74931e-010 -1.05764e-010 1.2659e-011
367
root  49.8877 37.9451 6.62955 -20.8287 84.2903 -17.8428
RightUpLeg  -14.2134 -4.10062 -1.16221
RightLeg  26.6809 4.67824 2.32013
RightFoot  -9.04945 -0.0664432 0.412398
RightToes  -4.65663e-010 0 -3.6325e-017
Spine  7.95979 -0.125304 11.4326
Spine1  6.78173 1.99947 -2.68034
HEad  -27.2916 1.23341 -2.54512
LeftShoulder1  -0.486988 4.69983 -34.5315
LeftArm  -0.431259 -2.73994 -46.1832
LeftForeArm  37.0653 -7.34772 -10.1854
LeftHand  0.031419 9.04835 2.47436
RightShoulder  -0.903531 -5.94432 30.4119
RightArm  13.5438 0.248063 47.0307
RightForeArm  18.5914 4.90801 7.32847
RightHand  -0.091723 2.92668 -1.50005
LeftUpLeg  -3.80927 1.21983 8.00546
LeftLeg  50.0048 3.47542 4.8552
LeftFoot  -5.41001 0.156187 -2.42828
LeftToes  8.74931e-010 -1.05764e-010 1.2659e-011
368
root  50.638 38.1994 6.86632 -8.47235 84.2016 -4.95325
RightUpLeg  -11.702 -3.83741 -2.33407
RightLeg  25.3223 4.95783 2.28598
RightFoot  -9.72849 -0.0652648 0.425327
RightToes  -4.65663e-010 0 -3.6325e-017
Spine  8.2339 -0.180166 12.8327
Spine1  6.35519 2.70854 -5.23907
HEad  -26.5363 1.2783 -1.84387
LeftShoulder1  -0.367066 4.44753 -32.7531
LeftArm  -1.97378 1.66243 -42.714
LeftForeArm  36.7613 -6.39736 -9.88654
LeftHand  -0.0113829 9.82815 1.02263
RightShoulder  -1.04968 -6.23843 31.8113
RightArm  15.6557 1.25144 47.7888
RightForeArm  17.9565 7.61284 7.95992
RightHand  -0.0778094 3.16495 -1.29274
LeftUpLeg  -6.5838 2.65949 6.78561
LeftLeg  52.8574 1.63115 2.79458
LeftFoot  -6.08834 0.235133 -4.29974
LeftToes  8.74931e-010 -1.05764e-010 1.2659e-011
369
root  51.4023 38.4557 7.08559 2.09869 84.122 5.8844
RightUpLeg  -9.19843 -4.46763 -3.34718
RightLeg  23.5047 5.85617 2.2506
RightFoot  -10.1886 -0.07466 0.514331
RightToes  -4.65663e-010 0 -3.6325e-017
Spine  7.88385 0.00424301 13.3796
Spine1  6.21532 3.16091 -6.49742
HEad  -24.6573 1.08637 -1.73588
LeftShoulder1  -0.262622 4.20516 -31.3459
LeftArm  -1.83964 6.45274 -39.6487
LeftForeArm  35.7236 -7.2773 -9.59468
LeftHand  -0.0772245 10.1915 -0.430735
RightShoulder  -1.14117 -6.42606 32.4992
RightArm  19.3682 2.87218 48.7874
RightForeArm  14.8 9.99028 8.35866
RightHand  -0.124453 4.38561 -1.76299
LeftUpLeg  -9.35324 3.99643 5.68944
LeftLeg  53.5894 0.668789 1.45617
LeftFoot  -5.73002 0.275308 -4.91665
LeftToes  8.74931e-010 -1.05764e-010 1.2659e-011
370
root  52.1172 38.6338 7.30182 9.57361 84.6184 13.6015
RightUpLeg  -6.86135 -6.25239 -3.99586
RightLeg  22.0514 7.15977 2.1793
RightFoot  -10.6632 -0.0738414 0.253544
RightToes  -4.65663e-010 0 -3.6325e-017
Spine  7.70366 0.182971 13.457
Spine1  5.94873 3.22076 -6.16837
HEad  -24.0891 0.842348 -2.5
LeftShoulder1  -0.2191 4.08859 -31.3048
LeftArm  -0.0616178 10.1596 -36.0771
LeftForeArm  34.0353 -8.53321 -9.64454
LeftHand  -0.1298 10.833 -1.29864
RightShoulder  -1.05902 -6.26892 31.6991
RightArm  23.972 3.6822 50.1503
RightForeArm  10.1423 13.9045 7.58738
RightHand  -0.160526 4.2244 -2.22325
LeftUpLeg  -12.0375 4.51733 4.9857
LeftLeg  52.7331 0.582769 1.27883
LeftFoot  -5.99018 0.286903 -5.38321
LeftToes  8.74931e-010 -1.05764e-010 1.2659e-011
371
root  52.864 38.7935 7.51594 18.9271 84.9226 23.51
RightUpLeg  -4.07168 -7.78973 -4.89139
RightLeg  20.4855 8.35207 2.05624
RightFoot  -11.2028 -0.0755677 -0.0760312
RightToes  -4.65663e-010 0 -3.6325e-017
Spine  7.34708 0.585987 12.2541
Spine1  6.35321 3.09016 -4.39149
HEad  -23.4046 0.699699 -3.51669
LeftShoulder1  -0.409342 4.55133 -32.8393
LeftArm  1.71965 12.2665 -32.1344
LeftForeArm  33.2568 -8.68475 -9.97255
LeftHand  0.0109495 9.25283 1.62622
RightShoulder  -0.897621 -5.94504 30.1979
RightArm  27.8838 4.86547 51.2942
RightForeArm  6.70438 17.6106 6.17846
RightHand  -0.0800245 4.918 -1.1952
LeftUpLeg  -13.7258 4.83916 4.19626
LeftLeg  49.705 1.17731 1.91733
LeftFoot  -6.51728 0.277127 -5.6654
LeftToes  8.74931e-010 -1.05764e-010 1.2659e-011
372
root  53.5607 38.8825 7.70438 26.3268 84.9713 31.2291
RightUpLeg  -1.91565 -8.68408 -5.6091
RightLeg  19.4058 9.04537 1.94846
RightFoot  -11.8954 -0.0819023 -0.232074
RightToes  -4.65663e-010 0 -3.6325e-017
Spine  6.94951 1.11216 11.7163
Spine1  6.8868 3.31857 -3.64674
HEad  -22.815 -0.178678 -3.86922
LeftShoulder1  -0.659964 5.14122 -34.182
LeftArm  3.18689 13.0464 -28.7876
LeftForeArm  30.7843 -8.4475 -10.3647
LeftHand  0.0290967 9.83425 2.13468
RightShoulder  -0.867157 -5.91908 29.2882
RightArm  29.993 6.64427 51.9217
RightForeArm  4.80009 20.7537 5.05477
RightHand  -0.11854 5.34531 -1.59407
LeftUpLeg  -15.1329 5.09064 3.57071
LeftLeg  45.0072 1.49659 2.0079
LeftFoot  -5.9029 0.270577 -4.93938
LeftToes  8.74931e-010 -1.05764e-010 1.2659e-011
